<svg xmlns="http://www.w3.org/2000/svg" width="40" height="41" fill="#fff"><path d="M8 6.6v5.9c-.5.2-.7.3-.7.9v2.1c0 .1-.1.3-.1.3-.1 0-.2 0-.3-.1-.3-.4-.6-.7-.9-1l-.6-.6c-.4-.4-.8-.4-1.2 0-.9.9-1.8 1.7-2.6 2.6-.4.4-.4.8 0 1.2l.6.6.8.8c.1.1.1.2.1.3 0 0 0 .1.1.1-.1.1-.3.1-.4.1h-2c-.5 0-.7.2-.7.7v3.8c0 .5.2.8.8.8H3.2c.1 0 .1.1.1.1s-.1.2-.1.3l-.9.9-.6.6c-.4.4-.4.8 0 1.2l2.7 2.7c.4.4.7.4 1.2 0l.6-.6.8-.8c.1-.1.3-.2.3-.1.1.1.2.2.2.3v2c0 .6.1.7.7.9v5.9c0 1.2.9 2 2 2H38c1.2 0 2-.9 2-2v-32c0-1.2-.9-2-2-2h-6.6v-.4c0-.8-.2-1-.9-1h-2.6c-.7-1.7-2-2.6-3.6-2.7-1.9 0-3.2.9-4 2.7h-2.6c-.8 0-1 .2-1 .9v.4h-6.6C8.8 4.5 8 5.4 8 6.6zm22.7 29.9H12v-3.9c.6-.2.7-.3.7-.9v-2.2c0-.1.1-.1.1-.1s.2.1.3.1l.8.8.6.6c.4.4.8.4 1.2 0l2.7-2.7c.4-.4.4-.7 0-1.2l-.6-.6-.9-.9c-.1-.1-.2-.3-.1-.3.1-.1.2-.1.3-.2h2.1c.5 0 .8-.2.8-.8v-3.8c0-.5-.2-.7-.7-.7H16.9c-.1 0-.1-.1-.1-.1 0-.1 0-.2.1-.3l.9-.9.6-.6c.5-.5.5-.8 0-1.2-.8-.9-1.7-1.7-2.6-2.6-.5-.5-.8-.4-1.2 0l-.2.2-1.2 1.2c-.1.1-.2.1-.3.1l-.1-.1v-2.3c0-.5-.1-.7-.7-.9v-4h4.7v.4c0 .7.2.9.9.9h12.8c.8 0 1-.2 1-1H36v22.7h-4.4c-.8 0-.9.2-.9 1v4.3zM9.3 38.2v-5.7h1.3v4.6c0 .5.2.8.8.8h19.7c.2 0 .3 0 .4-.1.1-.1.3-.1.4-.3l5-5c.1-.1.2-.2.3-.4.1-.1.1-.3.1-.4V8c0-.6-.2-.8-.9-.8h-5.1V5.9H37.7c.7 0 .9.2.9.9v31.5c0 .7-.2.9-.9.9H10.3c-.7 0-1-.3-1-1zm-5-19.5c-.4-.4-.9-.9-1.4-1.3l1.9-1.9.7.7.7.7c.4.4.6.4 1.1.2.3-.1.5-.1.6-.2.1 0 .2-.1.2-.1.3-.1.5-.3.5-.7V13.8h2.7v2.1c0 .4.2.7.6.8.3.1.5.2.8.3.3.2.6.1.9-.2l1.1-1.1c.2-.2.3-.3.4-.5l1.9 1.9-.5.5-1 1c-.3.3-.4.6-.2 1 .1.2.2.4.2.5 0 .1.1.2.1.3.1.3.4.5.7.5h2.2v2.7H16.4c-.4 0-.7.2-.8.6-.1.2-.1.4-.2.6-.3.7-.3.8.3 1.4.3.3.6.6.9.8.2.1.3.3.5.4l-1.9 1.9-.6-.3-.9-.9c-.4-.4-.6-.4-1.1-.2-.2.1-.4.2-.5.2-.1 0-.1 0-.2.1-.3.1-.5.4-.5.8V31.1H8.7V29c0-.4-.2-.7-.6-.8-.3-.1-.5-.2-.8-.3-.3-.2-.6-.1-.9.1l-1.1 1.1-.4.4L3 27.7l.5-.5.9-.9c.3-.3.4-.6.2-1-.1-.2-.2-.4-.2-.5 0-.1-.1-.2-.1-.3-.1-.5-.3-.7-.7-.7H1.3v-2.7H3.4c.4 0 .7-.2.8-.6.1-.2.1-.4.2-.6.5-.6.5-.7-.1-1.2zM30 4.5v4H18v-4h2.5c.6 0 .7-.1.9-.7.1-.6.5-1.1.9-1.4.5-.4 1-.6 1.6-.6.6 0 1.2.2 1.6.5.5.4.8.9 1 1.4.2.6.3.7.9.7H30zM10.7 8v4.5H9.4V6.7c0-.7.2-.9.9-.9h6.4v1.3h-5.2c-.6.1-.8.3-.8.9zM32 35.3v-2.8h2.8L32 35.3zm-16.6-1.5h13.3c.4 0 .7-.3.7-.6 0-.4-.3-.7-.7-.7H15.5c-.2 0-.4.1-.5.2-.1.2-.2.5-.1.7-.1.3.2.4.5.4zm13.9-20h-3.2c-.5 0-.8-.2-.8-.7s.3-.7.8-.7h6.5c.5 0 .8.2.8.7s-.3.7-.8.7H29.3zm-3.2 2.7h6.5c.5 0 .8-.2.8-.6 0-.4-.3-.7-.8-.7h-6.4c-.5 0-.8.2-.8.6-.1.5.2.7.7.7zm3.2 4h-3.2c-.5 0-.8-.3-.8-.7 0-.4.3-.6.8-.6h6.4c.5 0 .8.2.8.7 0 .4-.3.6-.8.6h-3.2zm-3.2 2.7h6.4c.5 0 .8-.2.8-.6 0-.4-.3-.7-.8-.7h-6.4c-.5 0-.8.2-.8.6 0 .4.3.7.8.7zm3.2 4h-3.2c-.5 0-.8-.2-.8-.7 0-.4.3-.7.8-.7h6.4c.5 0 .8.2.8.7 0 .4-.3.7-.8.7h-3.2zm3.3 1.3H26.1c-.5 0-.8.3-.8.7 0 .4.3.7.8.7h6.5c.5 0 .8-.3.8-.7-.1-.5-.4-.7-.8-.7zM23 13.8H22.7c-.1 0-.2 0-.3-.1-.1 0-.1-.1-.2-.2s-.1-.1-.1-.2V13c0-.2.1-.3.2-.5.1-.1.3-.2.4-.2h.7c.4 0 .7.3.7.7 0 .4-.3.6-.7.7h-.1c-.2.1-.2.1-.3.1zm.1 1.4h-.4c-.4 0-.7.3-.7.6 0 .4.3.7.7.7h.7c.2 0 .3-.1.4-.2.1-.1.2-.3.2-.4 0-.2-.1-.3-.2-.4-.1-.1-.3-.2-.4-.2-.1-.1-.2-.1-.3-.1zm-.1 5.3c-.7 0-1-.2-1-.6 0-.4.3-.7.7-.7 1 0 1.3.1 1.3.7 0 .2-.1.3-.2.5-.1.1-.3.2-.4.2h-.3c0-.1-.1-.1-.1-.1zm-1 2c0 .5.3.7 1 .7s1-.2 1-.7c0-.5-.3-.7-1-.7s-1 .2-1 .7zm1 4.7h-.4c-.2 0-.3-.1-.5-.2-.1-.2-.1-.3-.1-.5s.1-.3.2-.5c.1-.1.3-.2.5-.2h1c.1 0 .2.1.2.1.1.1.1.1.1.2v.3c0 .4-.3.7-.7.7h-.2c0 .1-.1.1-.1.1zm.1 1.3h-.4c-.4 0-.7.2-.7.7 0 .4.3.7.7.7h.7c.2 0 .3-.1.5-.2.1-.1.2-.3.2-.5s-.1-.3-.2-.5c-.1-.1-.3-.2-.5-.2h-.3zM10 17.8c.9 0 1.8.3 2.6.8s1.4 1.2 1.7 2.1c.3.9.4 1.8.3 2.7-.2.9-.6 1.7-1.3 2.4s-1.5 1.1-2.4 1.3c-.9.2-1.9.1-2.7-.3-.9-.4-1.6-1-2.1-1.7-.5-.8-.8-1.7-.8-2.6 0-.6.1-1.2.4-1.8.2-.6.6-1.1 1-1.5.4-.4 1-.8 1.5-1 .6-.3 1.2-.4 1.8-.4zm3.3 4.7c0-.7-.2-1.3-.6-1.9-.4-.6-.9-1-1.5-1.2-.6-.3-1.3-.3-1.9-.2-.6.1-1.2.4-1.7.9s-.8 1.1-.9 1.7c-.1.6-.1 1.3.2 1.9.3.6.7 1.1 1.2 1.5.6.4 1.2.6 1.9.6 1.8 0 3.3-1.5 3.3-3.3zm-3.3-.3c-.2.2-.4.5-.7.7 0-.1-.1-.1-.1-.1-.1-.1-.2-.2-.2-.3-.4-.4-.8-.4-1.1-.1-.3.3-.3.7.1 1l.8.8c.4.4.7.4 1.1 0 .7-.7 1.5-1.4 2.2-2.2.4-.4.4-.8.1-1.1-.3-.3-.7-.3-1.1.1-.4.5-.7.8-1.1 1.2z"/></svg>