<svg xmlns="http://www.w3.org/2000/svg" width="40" height="42" fill="#fff"><path d="M39.334 38.718a.668.668 0 0 1-.666-.67V14.973c0-.37.298-.67.666-.67.368 0 .666.3.666.67v23.073c0 .37-.298.67-.666.67ZM31.457 40.88H9.258a.668.668 0 0 1-.665-.67c0-.37.297-.67.665-.67h22.2c.367 0 .665.3.665.67 0 .37-.298.67-.666.67Z"/><path d="M39.334 40.88h-7.877a.663.663 0 0 1-.47-.196l-9.66-9.727-11.642 9.768c-.12.1-.27.155-.426.155H.666A.668.668 0 0 1 0 40.21v-4.807c0-.2.088-.387.24-.515l28.642-24.034c.12-.101.27-.156.427-.156h10.025c.368 0 .666.3.666.67v3.606c0 .199-.088.387-.24.515L27.822 25.507l11.983 12.066a.673.673 0 0 1 .195.474v2.163c0 .37-.298.67-.666.67Zm-7.601-1.34h6.935v-1.216L26.365 25.936a.67.67 0 0 1 .044-.99l12.26-10.286v-2.621H29.55L1.332 35.717v3.823h7.685l11.924-10.005a.663.663 0 0 1 .897.041l9.895 9.964Z"/><path d="M29.31 12.039H20a.668.668 0 0 1-.665-.67c0-.37.297-.67.666-.67h9.308c.368 0 .666.3.666.67 0 .37-.298.67-.666.67ZM.666 36.074A.668.668 0 0 1 0 35.403V11.369c0-.37.298-.67.666-.67H3.53c.368 0 .666.3.666.67 0 .37-.298.67-.666.67H1.332v23.364c0 .37-.298.67-.666.67ZM39.285 31.507c-2.708 0-4.912-2.08-4.912-4.636 0-2.557 2.204-4.636 4.912-4.636.368 0 .666.3.666.67v7.932c0 .37-.298.67-.666.67Zm-.666-7.874c-1.657.288-2.914 1.63-2.914 3.238 0 1.607 1.257 2.95 2.914 3.238v-6.476Z"/><path d="M.666 27.18A.668.668 0 0 1 0 26.51V18.58c0-.37.298-.67.666-.67 2.736 0 4.962 2.08 4.962 4.636S3.402 27.18.666 27.18Zm.666-7.875v6.48c1.685-.285 2.964-1.63 2.964-3.24 0-1.61-1.279-2.956-2.964-3.24ZM11.765 22.855a.663.663 0 0 1-.44-.168c-.346-.307-8.46-7.573-8.46-12.4 0-4.942 3.992-8.962 8.9-8.962s8.901 4.02 8.901 8.962c0 4.827-8.115 12.093-8.46 12.4a.663.663 0 0 1-.441.168Zm0-20.19c-4.174 0-7.57 3.42-7.57 7.622 0 3.294 5.105 8.709 7.57 10.994 2.465-2.285 7.57-7.7 7.57-10.994 0-4.202-3.396-7.621-7.57-7.621Z"/><path d="M11.764 15.562c-2.888 0-5.239-2.367-5.239-5.275 0-2.909 2.35-5.275 5.24-5.275 2.888 0 5.238 2.366 5.238 5.275 0 2.908-2.35 5.275-5.239 5.275Zm0-9.209c-2.154 0-3.907 1.765-3.907 3.934 0 2.17 1.753 3.934 3.907 3.934 2.155 0 3.907-1.765 3.907-3.934 0-2.169-1.752-3.934-3.907-3.934ZM4.66 38.199a.663.663 0 0 1-.504-.234.673.673 0 0 1 .072-.946l4.66-4.022c.28-.24.7-.208.94.072a.673.673 0 0 1-.073.946l-4.661 4.022a.66.66 0 0 1-.433.162ZM11.985 32.165a.662.662 0 0 1-.505-.234.673.673 0 0 1 .072-.945l4.66-4.023c.28-.24.7-.209.94.073a.672.672 0 0 1-.073.945l-4.66 4.023a.661.661 0 0 1-.434.16ZM19.975 25.46a.663.663 0 0 1-.512-.24.674.674 0 0 1 .085-.945l3.995-3.352a.663.663 0 0 1 .939.086.674.674 0 0 1-.086.944l-3.995 3.352a.663.663 0 0 1-.426.156ZM27.3 19.427a.664.664 0 0 1-.513-.241.674.674 0 0 1 .085-.945l3.995-3.352a.663.663 0 0 1 .939.086.674.674 0 0 1-.086.944l-3.995 3.352a.662.662 0 0 1-.426.156ZM33.959 14.063a.673.673 0 0 1-.4-1.207l2.663-2.01a.662.662 0 0 1 .932.133.673.673 0 0 1-.133.938l-2.664 2.012a.655.655 0 0 1-.398.134Z"/></svg>